<svg width="512" height="512" xmlns="http://www.w3.org/2000/svg" xmlns:svg="http://www.w3.org/2000/svg">
 <g>
  <title>Layer 1</title>
  <g stroke="null" id="svg_1">
   <g stroke="null" id="svg_2">
    <path stroke="null" id="svg_3" fill="#6D6E71" d="m318.5415,45.40656l0,-9.72321c0,-8.67727 -27.87854,-15.68336 -62.27949,-15.68336s-62.27949,7.00609 -62.27949,15.68336l0,9.72321c-39.06477,5.31154 -68.50952,15.99889 -68.50952,32.10296l0,376.41807c0,24.01003 65.79476,36.59644 130.78901,36.59644s130.78901,-12.58642 130.78901,-36.59644l0,-376.41807c0,-16.1216 -29.44475,-26.79143 -68.50952,-32.10296zm-124.55897,10.31338l0,21.78958c0,8.67727 27.87854,15.68336 62.27949,15.68336s62.27949,-7.00609 62.27949,-15.68336l0,-21.78958c35.45204,5.28817 56.04945,14.45042 56.04945,21.78958c0,10.91524 -45.01637,26.14282 -118.33589,26.14282s-118.33589,-15.22174 -118.33589,-26.14282c0.01392,-7.33916 20.61133,-16.50141 56.06337,-21.78958zm62.27949,424.32709c-73.31953,0 -118.33589,-15.22174 -118.33589,-26.14282l0,-359.91665c22.09401,13.23502 70.37505,20.09503 118.33589,20.09503s96.23493,-6.86001 118.33589,-20.09503l0,359.92249c0,10.91524 -45.01637,26.13698 -118.33589,26.13698z"/>
    <path stroke="null" id="svg_4" fill="#6D6E71" d="m153.0035,202.95883l0,250.94538c11.3324,6.43929 47.13249,15.68336 103.25851,15.68336c56.10514,0 91.87738,-9.24406 103.25851,-15.68336l0,-250.94538c-11.3324,-6.42176 -47.16033,-15.68336 -103.25851,-15.68336c-56.12602,0 -91.87738,9.26744 -103.25851,15.68336z"/>
   </g>
  </g>
  <g id="svg_5"/>
  <g id="svg_6"/>
  <g id="svg_7"/>
  <g id="svg_8"/>
  <g id="svg_9"/>
  <g id="svg_10"/>
  <g id="svg_11"/>
  <g id="svg_12"/>
  <g id="svg_13"/>
  <g id="svg_14"/>
  <g id="svg_15"/>
  <g id="svg_16"/>
  <g id="svg_17"/>
  <g id="svg_18"/>
  <g id="svg_19"/>
 </g>
</svg>