<svg id="energy-monitor-svg" width="500" height="500" xmlns="http://www.w3.org/2000/svg" xmlns:svg="http://www.w3.org/2000/svg">
 <!-- Created with SVG-edit - http://svg-edit.googlecode.com/ -->
 <g>
  <title>Energy Monitor</title>
  <g id="svg_44" stroke="null">
   <path d="m257.22214,198.35132c-1.08549,-1.21222 -2.82714,-1.19221 -3.8991,0.03078l-48.06457,54.14791c-0.51997,0.59148 -1.49768,1.39278 -1.49768,2.22435l0,56.77908c0,1.74316 2.6215,2.8892 4.15661,2.8892l96.12824,0c1.53015,0 2.31529,-1.14552 2.31529,-2.8892l0,-56.77908c0,-0.85004 -0.07306,-1.66314 -0.60926,-2.25514l-48.52952,-54.14791l-0.00001,0l0,0.00001z" fill="#00AC85" id="svg_45" stroke="null"/>
   <path d="m324.49721,249.90295l-67.2453,-76.7588c-0.52268,-0.59302 -1.27264,-0.88852 -1.9712,-0.9275c-0.74455,0.00308 -1.30556,0.34063 -1.82553,0.94289l-24.73716,28.80071l0,-16.79759c0,-1.74214 -1.53826,-3.22368 -3.06841,-3.22368l-16.635,0c-1.53285,0 -2.48034,1.48205 -2.48034,3.22368l0,42.47004l-19.40036,22.28205c-1.07241,1.24145 -1.12923,3.24369 -0.03788,4.46359c1.09406,1.21991 3.35523,1.20144 4.43035,-0.03694l20.55349,-23.18185c0,0 0,-0.00308 0,-0.00615l43.77222,-51.29719l64.9918,74.49751c0.54162,0.6156 1.1157,0.9275 1.82779,0.9275c0.70667,0 1.34886,-0.30523 1.88777,-0.92135c1.08323,-1.22556 1.01784,-3.22214 -0.06223,-4.45693l-0.00001,0.00001z" fill="#00AC85" id="svg_46" stroke="null"/>
  </g>
  <text fill="#ffffff" stroke-width="0" x="254" y="286" id="svg_60" font-size="24" text-anchor="middle" xml:space="preserve" stroke="null">N/A</text>
  <g transform="rotate(-24.465805053710938 166.32025146484372,326.0910949707032) " stroke="black" id="svg_31" stroke-width="4" class="flowline">
   <path stroke="#81C225" id="svg_32" d="m141.50786,326.09111l49.62478,0"/>
  </g>
  <g stroke="black" transform="rotate(36.29158401489258 165.89860534667974,177.60824584960938) " id="svg_38" stroke-width="4" class="flowline">
   <path stroke="#c6c6c6" id="svg_39" d="m138.78979,177.60825l54.21763,0" fill="#F1F1F1"/>
  </g>
  <g transform="rotate(26.418184280395508 342.39572143554676,324.48687744140636) " stroke-width="4" id="svg_33" class="flowline1" stroke="black">
   <path d="m316.91617,324.48688l50.9591,0" id="svg_34" stroke="#1888C9"/>
  </g>
  <path id="svg_57" fill="#F1F1F1" stroke-width="5" stroke-dasharray="null" stroke-linejoin="null" stroke-linecap="null" d="m354.85994,115.66807l31.76964,-58.86871l84.71902,0l31.76963,58.86871l-31.76963,58.8687l-84.71902,0l-31.76964,-58.8687z" transform="rotate(89.88292694091797 428.98907470703125,115.66806030273443) " stroke="null"/>
  <path stroke="null" id="svg_69" fill="#C6C6C6" d="m475.50618,98.39729l-30.03501,-25.18983c-0.8,-0.67086 -1.90191,-0.67086 -2.7019,0l-4.93746,4.14103l-4.93746,-4.14103c-0.8,-0.67086 -1.90191,-0.67086 -2.7019,0l-4.81438,4.03765l-4.81438,-4.03765c-0.8,-0.67086 -1.90191,-0.67086 -2.7019,0l-30.03501,25.18983c-0.56185,0.4716 -0.8923,1.20948 -0.8923,1.99228l0,42.41091c0,1.37808 1.00448,2.49524 2.24357,2.49524l12.33067,0l12.57618,0l35.1635,0l12.33067,0l12.57618,0c1.23909,0 2.24357,-1.11715 2.24357,-2.49524l0,-42.41091c0,-0.78279 -0.33044,-1.52067 -0.89262,-1.99228l-0.00004,0l0.00002,0zm-3.59452,41.90794l-8.08904,0l0,-39.91567c0,-0.78315 -0.33044,-1.52067 -0.89262,-1.99228l-21.37162,-17.92368l2.56184,-2.14876l27.79145,23.30841l0,38.67197l0,0.00001l-0.00001,0zm-20.41971,0l0,-39.91567c0,-0.78315 -0.33044,-1.52067 -0.89262,-1.99228l-21.4947,-18.02669l2.43908,-2.04539l27.79176,23.30841l0,38.67197l-7.84353,0l0,-0.00035l0.00001,0.00001l0,-0.00001zm-28.60458,-0.00035l-6.55892,0l-0.78974,0l0,-18.09407l7.34866,0l0,18.09407zm4.48715,0l0,-20.58931c0,-1.37808 -1.00448,-2.49524 -2.24357,-2.49524l-11.8358,0c-1.23909,0 -2.24357,1.11715 -2.24357,2.49524l0,20.58931l-7.2993,0l-12.33067,0l0,-38.67197l27.79145,-23.30841l27.79176,23.30841l0,38.67197l-19.63029,0l-0.00001,0z"/>
  <path id="svg_70" fill="#F1F1F1" stroke-width="5" stroke-dasharray="null" stroke-linejoin="null" stroke-linecap="null" d="m3.87221,116.67076l30.34049,-58.19795l80.90795,0l30.34048,58.19795l-30.34048,58.19794l-80.90795,0l-30.34049,-58.19794z" transform="rotate(89.88292694091797 74.66667175292967,116.67075347900393) " stroke="null"/>
  <g stroke="null" id="svg_71">
   <path stroke="null" id="svg_72" d="m101.1785,90.93115l-56.69618,0l-4.02182,38.82249l65.74507,0l-5.02708,-38.82249l0.00001,0zm-56.04469,11.64784l0.97028,-9.35482l53.50393,0l1.23461,9.55486l-55.72749,0l0.01868,-0.20004l-0.00001,0zm-1.35028,13.03524l1.0927,-10.53475l56.26371,0l1.39281,10.73528l-58.76631,0l0.01709,-0.20053zm-1.20599,11.64041l0.94881,-9.14041l59.30531,0l1.20917,9.34244l-61.48197,0l0.01868,-0.20202l0,-0.00001z" fill="#c6c6c6"/>
   <polygon stroke="null" id="svg_93" points="57.185455322265625,101.64175415039062 57.821380615234375,94.26791381835938 55.981781005859375,94.23971557617188 55.347412109375,101.62191772460938 " fill="#c6c6c6"/>
   <polygon stroke="null" id="svg_94" points="56.18372344970703,114.23593139648438 56.819732666015625,106.86212158203125 54.981689453125,106.8319091796875 54.345733642578125,114.21810913085938 " fill="#c6c6c6"/>
   <polygon stroke="null" id="svg_95" points="55.02862548828125,126.49331665039062 55.66461181640625,119.11959838867188 53.825408935546875,119.0963134765625 53.19061279296875,126.47894287109375 " fill="#c6c6c6"/>
   <polygon stroke="null" id="svg_96" points="86.18000030517578,94.43280029296875 86.81442260742188,101.806640625 88.65403747558594,101.79226684570312 88.01800537109375,94.40606689453125 " fill="#c6c6c6"/>
   <polygon stroke="null" id="svg_97" points="87.17852783203125,107.0250244140625 87.81610107421875,114.39883422851562 89.6536865234375,114.38299560546875 89.01651000976562,107.00027465820312 " fill="#c6c6c6"/>
   <polygon stroke="null" id="svg_98" points="88.33639526367188,119.2899169921875 88.97119140625,126.66513061523438 90.8104248046875,126.64532470703125 90.17440795898438,119.26116943359375 " fill="#c6c6c6"/>
   <rect stroke="null" id="svg_99" x="71.3901" y="94.40807" width="1.84515" height="7.22816" fill="#c6c6c6"/>
   <rect stroke="null" id="svg_100" x="71.3901" y="106.57482" width="1.84515" height="7.23162" fill="#c6c6c6"/>
   <rect stroke="null" id="svg_101" x="71.3901" y="119.60858" width="1.84515" height="7.23509" fill="#c6c6c6"/>
   <path stroke="null" id="svg_102" d="m71.57493,135.19878l41.00521,0l-5.94647,-50.01629l-67.93286,0l-5.94766,50.01629l36.97664,0l0,17.32024l-14.5144,0.00545l0,2.25243l31.61209,0.0406l0,-2.29847l-15.25254,0l0,-17.32024l-0.00001,0l0,-0.00001zm-36.68368,-2.29649l0.02425,-0.20202l5.37885,-45.22474l64.74657,0l5.40588,45.42677l-75.55555,0l0.00001,-0.00001l-0.00001,0z" fill="#c6c6c6"/>
  </g>
  <path id="svg_103" stroke="null" fill="#F1F1F1" stroke-width="5" stroke-dasharray="null" stroke-linejoin="null" stroke-linecap="null" d="m360.20556,379l30.34049,-56.19796l80.90795,0l30.34048,56.19796l-30.34048,56.19795l-80.90795,0l-30.34049,-56.19795z" transform="rotate(89.88292694091797 431.0000305175781,379) "/>
  <g stroke="null" id="svg_104">
   <path stroke="null" id="svg_105" fill="#1888C9" d="m469.24959,352.36116c0.41772,0 0.78262,-0.18955 0.89076,-0.46252c0.10562,-0.27212 -0.0752,-0.55916 -0.43783,-0.6975l-13.60433,-5.18601c-0.01634,-0.00712 -0.02691,-0.0178 -0.04602,-0.02492l-4.87201,-1.89788l0,-13.70137c0,-0.26839 -0.2545,-0.50558 -0.63248,-0.58917c-0.37697,-0.08427 -0.79343,0.00475 -1.02832,0.22024l-11.82607,10.80877l-12.47692,0.0217l-11.71518,-10.7067c-0.23589,-0.216 -0.65135,-0.30382 -1.02807,-0.22108c-0.37723,0.08427 -0.63324,0.32095 -0.63324,0.58985l0,13.60523l-2.51862,1.01523c-0.01006,0.00322 -0.02188,0.00322 -0.03169,0.00746l-15.66348,6.06001c-0.36214,0.13919 -0.53868,0.42606 -0.4313,0.6975c0.10814,0.27144 0.47178,0.46014 0.889,0.46014l3.0646,0l0,1.02117l-1.44202,0c-0.6091,0 -1.10452,0.33434 -1.10452,0.74464c0,0.40979 0.49543,0.74464 1.10452,0.74464l1.44202,0l0,0.68293l-1.44202,0c-0.6091,0 -1.10452,0.33383 -1.10452,0.74497c0,0.41063 0.49543,0.74464 1.10452,0.74464l1.44202,0l0,2.04826c0,0.27382 0.3297,0.49575 0.7371,0.49575l3.68249,0c0.40615,0 0.73534,-0.2221 0.73534,-0.49575l0,-2.04826l1.68771,0c0.6091,0 1.10452,-0.33468 1.10452,-0.74464c0,-0.4103 -0.49517,-0.74497 -1.10452,-0.74497l-1.68771,0l0,-0.68293l1.68771,0c0.6091,0 1.10452,-0.33468 1.10452,-0.74464c0,-0.41114 -0.49517,-0.74464 -1.10452,-0.74464l-1.68771,0l0,-1.02117l6.91307,0l15.04156,30.3177l-8.20897,23.73261l-9.35524,14.46957c-0.0518,0.07986 -0.07117,0.16463 -0.07117,0.24838l-2.58376,0l0,1.82073l13.80929,0l0,-1.82073l-3.29545,0l14.45233,-13.90262l4.93112,0l14.27705,13.90262l-3.17726,0l0,1.82073l13.80853,0l0,-1.82073l-2.52214,0c0,-0.0846 -0.02012,-0.16853 -0.07168,-0.24838l-9.3497,-14.46143l-7.11627,-23.73752l14.06455,-30.3216l8.15616,0l0,1.02117l-1.44227,0c-0.60935,0 -1.10452,0.33434 -1.10452,0.74464c0,0.40979 0.49517,0.74464 1.10452,0.74464l1.44227,0l0,0.68293l-1.44227,0c-0.60935,0 -1.10452,0.334 -1.10452,0.74497c0,0.41063 0.49517,0.74464 1.10452,0.74464l1.44227,0l0,2.04826c0,0.27382 0.32995,0.49575 0.7371,0.49575l3.68199,0c0.40741,0 0.73735,-0.22194 0.73735,-0.49575l0,-2.04826l1.68771,0c0.6091,0 1.10452,-0.33468 1.10452,-0.74464c0,-0.4103 -0.49543,-0.74497 -1.10452,-0.74497l-1.68771,0l0,-0.68293l1.68771,0c0.6091,0 1.10452,-0.33468 1.10452,-0.74464c0,-0.41098 -0.49543,-0.74464 -1.10452,-0.74464l-1.68771,0l0,-1.02117l2.08808,0l0,0.0017l-0.00025,0l-0.00002,-0.00001zm-65.25908,3.69013c0.20295,0 0.36843,0.1119 0.36843,0.24889c0,0.13682 -0.16548,0.24838 -0.36843,0.24838l-8.28567,0c-0.20295,0 -0.36918,-0.11156 -0.36918,-0.24838c0,-0.13699 0.16623,-0.24889 0.36918,-0.24889l8.28567,0zm0,-2.17254c0.20295,0 0.36843,0.1119 0.36843,0.24889c0,0.13682 -0.16548,0.24804 -0.36843,0.24804l-8.28567,0c-0.20295,0 -0.36918,-0.11122 -0.36918,-0.24804c0,-0.13699 0.16623,-0.24889 0.36918,-0.24889l8.28567,0zm64.85997,2.17254c0.20295,0 0.36843,0.1119 0.36843,0.24889c0,0.13682 -0.16548,0.24838 -0.36843,0.24838l-8.28744,0c-0.2032,0 -0.36742,-0.11156 -0.36742,-0.24838c0,-0.13699 0.16422,-0.24889 0.36742,-0.24889l8.28744,0zm0,-2.17254c0.20295,0 0.36843,0.1119 0.36843,0.24889c0,0.13682 -0.16548,0.24804 -0.36843,0.24804l-8.28744,0c-0.2032,0 -0.36742,-0.11122 -0.36742,-0.24804c0,-0.13699 0.16422,-0.24889 0.36742,-0.24889l8.28744,0zm-47.80074,52.10716l10.32622,-3.13826l9.86198,3.13826l-20.1882,0zm-2.88905,-0.21125l2.22162,-6.42504l9.24233,2.94125l-11.46394,3.48379l-0.00001,0zm6.40959,-18.53252l5.65313,1.87855l-7.13136,2.39515l1.47823,-4.2737l0,-0.00001l0,0.00001zm2.48291,-0.28178l9.6037,0l-4.77695,1.60406l-4.82675,-1.60406zm4.83027,2.71254l8.09505,2.69033l-8.16723,2.28918l-7.95069,-2.28596l8.02287,-2.69355zm-9.32908,3.39783l7.35669,2.11421l-8.95638,2.51078l1.59969,-4.62499zm-1.03587,5.54273l10.28699,-2.88343l9.97213,2.86682l-10.38834,3.15708l-9.87079,-3.14047l0.00001,0zm12.18847,-3.41581l7.33506,-2.05657l1.36631,4.55785l-8.70138,-2.50129l0.00001,0l0,0.00001zm-0.16623,-6.08087l5.71952,-1.92042l1.27251,4.24352l-6.99203,-2.32309l0,-0.00001zm-8.53087,-3.14945l0.93251,-2.69745l12.14068,0l0.80978,2.69745l-13.88297,0zm3.20065,-12.39808l-6.58614,-0.98709l0.76703,-3.94258l5.81911,4.92966l0,0.00001zm13.67198,-5.42965l0.56559,4.38l-7.17361,1.01286l6.60802,-5.39285l0,-0.00001zm-7.97258,6.50625l3.23636,7.38331l-10.64838,0l2.93482,-7.42535l1.65729,1.40298c0.13857,0.11716 0.3473,0.18599 0.56987,0.18752c0.00226,0 0.00352,0 0.00578,0c0.21879,0 0.42778,-0.06646 0.5676,-0.18039l1.67665,-1.36805l0.00001,0l0,-0.00002zm-13.47582,-3.58382l-3.49111,-7.03642l4.17314,3.53381l-0.68203,3.50261zm7.49878,3.48176l-2.55987,6.47269l-3.67545,-7.4067l6.23532,0.93402l0,-0.00001zm10.49522,6.90705l-3.03316,-6.9213l6.68069,-0.94318l-3.64754,7.86447l0.00001,0l0,0.00001zm4.7923,-14.40277l3.03995,-2.48111l-2.62928,5.66718l-0.41068,-3.18607l0.00001,0zm4.20432,-4.98867l-15.74824,12.85076l-9.20712,-7.79801l0,0l-6.01829,-5.09667l9.19957,-9.65435l3.08975,0l0,1.02117l-1.44176,0c-0.60985,0 -1.10502,0.33468 -1.10502,0.74464s0.49517,0.74464 1.10502,0.74464l1.44176,0l0,0.68326l-1.44176,0c-0.60985,0 -1.10502,0.3335 -1.10502,0.74464c0,0.41063 0.49517,0.74464 1.10502,0.74464l1.44176,0l0,2.04826c0,0.27382 0.3292,0.49575 0.7371,0.49575l3.68249,0c0.4059,0 0.73534,-0.22194 0.73534,-0.49575l0,-2.04826l1.68771,0c0.61035,0 1.10553,-0.33485 1.10553,-0.74464c0,-0.4103 -0.49543,-0.74464 -1.10553,-0.74464l-1.68771,0l0,-0.68326l1.68771,0c0.61035,0 1.10553,-0.33485 1.10553,-0.74464c0,-0.41098 -0.49543,-0.74464 -1.10553,-0.74464l-1.68771,0l0,-1.02117l3.49061,0l10.06217,9.64248l-0.02338,0.05578l0,0.00001zm-31.68358,-18.0656l-5.56939,6.38316l-1.7106,-3.4487l7.27999,-2.93447l0,0.00001zm15.01868,-1.90822l-5.78918,8.05945l-5.87494,-7.50318l1.33513,-0.53847l10.32899,-0.0178zm11.53109,-0.02137l1.13822,0.44302l-5.69815,7.96349l-4.58331,-8.39023l9.14324,-0.01628zm-16.38449,9.05653l6.02759,-8.39023l4.58331,8.39023l-10.6109,0zm-7.90945,-7.75409l6.07211,7.75409l-12.8373,0l6.7652,-7.75409l-0.00001,0zm17.58861,10.51207c0.20194,0 0.36742,0.1119 0.36742,0.24889c0,0.13682 -0.16548,0.24804 -0.36742,0.24804l-8.28693,0c-0.2037,0 -0.36918,-0.11122 -0.36918,-0.24804c0,-0.13699 0.16548,-0.24889 0.36918,-0.24889l8.28693,0zm0,2.17254c0.20194,0 0.36742,0.1119 0.36742,0.24889c0,0.13682 -0.16548,0.24838 -0.36742,0.24838l-8.28693,0c-0.2037,0 -0.36918,-0.11156 -0.36918,-0.24838c0,-0.13699 0.16548,-0.24889 0.36918,-0.24889l8.28693,0zm8.9433,-12.79261l6.70911,7.86125l-12.33584,0l5.62673,-7.86125zm2.1326,0.50711l6.39551,2.49179c0.04225,0.0234 0.0752,0.0534 0.12449,0.07206l1.30873,0.49812l-1.8371,3.95919l-5.99162,-7.02116l-0.00001,0zm1.90626,-0.69021l-3.60327,-6.09561l4.37458,-1.10339l0,7.49893l-0.77131,-0.29993zm0.77105,-8.50314c-0.04929,0.00746 -0.09959,0.00424 -0.14662,0.01661l-3.28867,0.82958l3.43529,-3.13979l0,2.29359l0,0.00001zm-5.93077,3.12639l2.58451,4.37373l-2.99393,-1.1668c-0.13982,-0.05459 -0.29926,-0.08341 -0.46147,-0.08341c-0.00126,0 -0.00126,0 -0.00226,0l-2.55157,0.00475l3.42472,-3.12826l-0.00001,0l0.00001,-0.00001zm-23.23444,3.16301c-0.16598,0 -0.32793,0.03086 -0.47003,0.08833l-2.91194,1.17426l2.64135,-4.46714l3.50117,3.19997l-2.76055,0.00458zm-2.73414,-5.02613l-3.75819,-0.94792l0,-2.48585l3.75819,3.43378l0,-0.00001zm-3.75819,0.37774l4.02225,1.01438l-3.514,5.94557l-0.507,0.20413l0,-7.16408l-0.00126,0l0.00001,0zm-16.14483,14.90733l9.28105,-3.59128l1.78102,3.59128l-11.06207,0zm26.36417,1.24038l-8.38073,8.79544l-4.36276,-8.79544l12.7435,0l-0.00001,0zm-10.95167,68.14772l-4.00716,0l8.5872,-13.28157l9.22824,0l-13.80828,13.28157l-0.00001,0l0.00001,0zm36.86643,0l-13.64054,-13.28157l9.24056,0l8.58695,13.28157l-4.18697,0zm-5.12778,-14.52298l-11.54693,-3.6747l9.76164,-2.96651l1.98925,6.64121l-0.20395,0l-0.00001,0zm3.31658,-45.17671l-8.81329,-8.4472l12.73243,0l-3.91914,8.4472zm8.12447,-13.35634l9.62206,3.66707l-11.32361,0l1.70154,-3.66707l0.00001,0z"/>
  </g>
  <path id="svg_1" stroke="null" fill="#F1F1F1" stroke-width="5" stroke-dasharray="null" stroke-linejoin="null" stroke-linecap="null" d="m2.20556,380.33334l30.34049,-58.19795l80.90795,0l30.34048,58.19795l-30.34048,58.19794l-80.90795,0l-30.34049,-58.19794z" transform="rotate(89.88292694091797 73.00018310546876,380.3353271484375) "/>
  <g id="svg_5" stroke="null">
   <path id="svg_6" stroke="null" fill="#81c225" d="m49,390.2l0,29.20676c0,2.71644 2.2015,4.92658 4.90733,4.92658l35.51867,0c2.70583,0 4.90733,-2.21013 4.90733,-4.92658l0,-29.20676l-45.33333,0z"/>
   <path id="svg_7" stroke="null" fill="#81c225" d="m94.33334,387.35555l0,-37.74009c0,-2.71644 -2.2015,-4.92658 -4.90733,-4.92658l-9.25933,0l0,-5.68889l-17,0l0,5.68889l-9.25933,0c-2.70583,0 -4.90733,2.21013 -4.90733,4.92658l0,37.74009l45.33333,0l-0.00001,0zm-42.5,-37.74009c0,-1.14916 0.92933,-2.08213 2.074,-2.08213l9.25933,0l17,0l9.25933,0c1.14467,0 2.074,0.93298 2.074,2.08213l0,34.89565l-39.66667,0l0,-34.89565l0.00001,0z"/>
  </g>
  <g id="svg_8" stroke="black" transform="rotate(-32.93222427368164 338.33331298828125,180.33337402343747) " stroke-width="4" class="flowline1">
   <path id="svg_9" stroke="#c6c6c6" d="m312.85378,180.33337l50.95909,0"/>
  </g>
  <text id="svg_2" fill="#c6c6c6" stroke-width="0" x="71.71875" y="32.5" font-size="24" text-anchor="middle" xml:space="preserve" stroke="null">N/A</text>
  <text fill="#81C225" stroke-width="0" x="71.71875" y="483.5" font-size="24" text-anchor="middle" xml:space="preserve" stroke="null" id="svg_3">N/A</text>
  <text fill="#C6C6C6" stroke-width="0" x="431.71875" y="26.5" font-size="24" text-anchor="middle" xml:space="preserve" stroke="null" id="svg_4">N/A</text>
  <text fill="#1888C9" stroke-width="0" x="431.71875" y="482.5" font-size="24" text-anchor="middle" xml:space="preserve" stroke="null" id="svg_10">N/A</text>
 </g>
</svg>