<svg id="energy-monitor-svg" width="1200" height="900" xmlns="http://www.w3.org/2000/svg" xmlns:svg="http://www.w3.org/2000/svg">
                <!-- Created with SVG-edit - http://svg-edit.googlecode.com/ -->
                <g>
                    <title>Energy Monitor</title>
                    <g stroke="null" id="svg_3">
                        <path stroke="null" d="m224.56877,158.17487l-70.90094,0l-5.02945,41.05255l82.21696,0l-6.28657,-41.05255zm-70.08623,12.31692l1.21337,-9.89218l66.9089,0l1.54393,10.10371l-69.68956,0l0.02336,-0.21153zm-1.68858,13.78402l1.36647,-11.13989l70.36012,0l1.74177,11.35194l-73.48973,0l0.02137,-0.21205zm-1.50814,12.30906l1.18653,-9.66546l74.16377,0l1.51212,9.87909l-76.88578,0l0.02336,-0.21362l0,-0.00001z"
                            fill="#81C225" id="svg_4" />
                        <polygon stroke="null" points="169.55398559570312,169.50064086914062 170.3493194580078,161.70333862304688 168.048828125,161.67349243164062 167.2554931640625,169.47967529296875 "
                            fill="#81C225" id="svg_5" />
                        <polygon stroke="null" points="168.3013458251953,182.818115234375 169.0966796875,175.02084350585938 166.7981719970703,174.9888916015625 166.0028533935547,182.79928588867188 "
                            fill="#81C225" id="svg_6" />
                        <polygon stroke="null" points="166.85684204101562,195.77960205078125 167.65216064453125,187.9822998046875 165.3521728515625,187.95767211914062 164.55833435058594,195.764404296875 "
                            fill="#81C225" id="svg_7" />
                        <polygon stroke="null" points="205.81295776367188,161.877685546875 206.60630798339844,169.67498779296875 208.9067840576172,169.6597900390625 208.1114501953125,161.84942626953125 "
                            fill="#81C225" id="svg_8" />
                        <polygon stroke="null" points="207.06163024902344,175.19308471679688 207.8589324951172,182.99038696289062 210.1569366455078,182.9736328125 209.36012268066406,175.16690063476562 "
                            fill="#81C225" id="svg_9" />
                        <polygon stroke="null" points="208.50961303710938,188.16241455078125 209.30345153808594,195.96127319335938 211.6034393310547,195.94033813476562 210.80812072753906,188.13201904296875 "
                            fill="#81C225" id="svg_10" />
                        <rect stroke="null" x="187.31713" y="161.85151" width="2.30744" height="7.64336" fill="#81C225" id="svg_11" />
                        <rect stroke="null" x="187.31713" y="174.71715" width="2.30744" height="7.64702" fill="#81C225" id="svg_12" />
                        <rect stroke="null" x="187.31713" y="188.4996" width="2.30744" height="7.65069" fill="#81C225" id="svg_15" />
                        <path stroke="null" d="m187.54827,204.98533l51.27873,0l-7.43631,-52.88934l-84.95288,0l-7.4378,52.88934l46.24083,0l0,18.31516l-18.15086,0.00576l0,2.38181l39.53224,0.04293l0,-2.4305l-19.07394,0l0,-18.31516l-0.00001,0zm-45.87448,-2.42841l0.03032,-0.21362l6.72648,-47.82256l80.96829,0l6.76028,48.03619l-94.48538,0l0.00001,-0.00001z"
                            fill="#81C225" id="svg_16" />
                    </g>
                    <g stroke="null" id="svg_13">
                        <path stroke="null" id="svg_14" fill="#c6c6c6" d="m261.24864,108c13.70375,0 24.85236,-11.88773 24.85236,-26.5s-11.14939,-26.5 -24.85313,-26.5c-3.23857,0 -7.00448,0.67078 -9.59301,1.70925l-1.61851,0.64925l1.53075,0.85877c6.82508,3.82925 11.23482,11.01738 11.23482,18.31398c0,11.4157 -8.70997,20.70313 -19.4159,20.70313l-0.53588,0.00166l-1.95013,-0.04886l1.11603,1.40864c4.66215,5.8888 11.85147,9.40419 19.23262,9.40419l-0.00002,-0.00001zm3.10499,-31.46875c0,-7.33139 -4.07501,-14.5427 -10.5141,-18.82991c2.24137,-0.64925 4.97668,-1.04509 7.40911,-1.04509c12.84712,0 23.29909,11.14491 23.29909,24.84375s-10.45197,24.84375 -23.29909,24.84375c-6.349,0 -12.54423,-2.76677 -16.8996,-7.47631c11.11755,-0.53828 20.00459,-10.35073 20.00459,-22.33619z"
                        />
                    </g>
                    <g id="svg_1" stroke="null">
                        <path id="svg_2" fill="#81C225" d="m187,93.97931c10.02155,0 18.10345,-7.82069 18.10345,-17.37931s-8.14655,-17.37931 -18.10345,-17.37931s-18.10345,7.82069 -18.10345,17.37931s8.0819,17.37931 18.10345,17.37931zm0,-29.73103c7.11207,0 12.86638,5.52414 12.86638,12.35172c0,6.82759 -5.75431,12.35172 -12.86638,12.35172s-12.86638,-5.52414 -12.86638,-12.35172c0,-6.82759 5.75431,-12.35172 12.86638,-12.35172z"
                            stroke="null" />
                        <path id="svg_17" fill="#81C225" d="m189.65086,51.15173l0,-8.0069c0,-1.42759 -1.16379,-2.54483 -2.65086,-2.54483s-2.65086,1.11724 -2.65086,2.54483l0,8.0069c0,1.42759 1.16379,2.54483 2.65086,2.54483s2.65086,-1.11724 2.65086,-2.54483z"
                            stroke="null" />
                        <path id="svg_18" fill="#81C225" d="m184.34914,102.04828l0,8.0069c0,1.42759 1.16379,2.54483 2.65086,2.54483s2.65086,-1.11724 2.65086,-2.54483l0,-8.0069c0,-1.42759 -1.16379,-2.54483 -2.65086,-2.54483s-2.65086,1.11724 -2.65086,2.54483z"
                            stroke="null" />
                        <path id="svg_19" fill="#81C225" d="m207.625,60.4l5.88362,-5.64828c1.03448,-0.9931 1.03448,-2.6069 0,-3.6c-1.03448,-0.9931 -2.71552,-0.9931 -3.75,0l-5.88362,5.64828c-1.03448,0.9931 -1.03448,2.6069 0,3.6c0.51724,0.49655 1.16379,0.74483 1.875,0.74483s1.35776,-0.24828 1.875,-0.74483z"
                            stroke="null" />
                        <path id="svg_20" fill="#81C225" d="m160.49138,102.04828c0.51724,0.49655 1.16379,0.74483 1.875,0.74483c0.64655,0 1.35776,-0.24828 1.875,-0.74483l5.88362,-5.64828c1.03448,-0.9931 1.03448,-2.6069 0,-3.6c-1.03448,-0.9931 -2.71552,-0.9931 -3.75,0l-5.88362,5.64828c-1.03448,0.9931 -1.03448,2.6069 0,3.6z"
                            stroke="null" />
                        <path id="svg_21" fill="#81C225" d="m224.5,76.6c0,-1.42759 -1.16379,-2.54483 -2.65086,-2.54483l-8.34052,0c-1.48707,0 -2.65086,1.11724 -2.65086,2.54483c0,1.42759 1.16379,2.54483 2.65086,2.54483l8.34052,0c1.42241,0 2.65086,-1.11724 2.65086,-2.54483z"
                            stroke="null" />
                        <path id="svg_22" fill="#81C225" d="m152.15086,79.14483l8.34052,0c1.48707,0 2.65086,-1.11724 2.65086,-2.54483c0,-1.42759 -1.16379,-2.54483 -2.65086,-2.54483l-8.34052,0c-1.48707,0 -2.65086,1.11724 -2.65086,2.54483c0,1.42759 1.22845,2.54483 2.65086,2.54483z"
                            stroke="null" />
                        <path id="svg_23" fill="#81C225" d="m211.63362,102.7931c0.64655,0 1.35776,-0.24828 1.875,-0.74483c1.03448,-0.9931 1.03448,-2.6069 0,-3.6l-5.88362,-5.64828c-1.03448,-0.9931 -2.71552,-0.9931 -3.75,0c-1.03448,0.9931 -1.03448,2.6069 0,3.6l5.88362,5.64828c0.51724,0.49655 1.22845,0.74483 1.875,0.74483z"
                            stroke="null" />
                        <path id="svg_24" fill="#81C225" d="m170.125,60.4c1.03448,-0.9931 1.03448,-2.6069 0,-3.6l-5.88362,-5.64828c-1.03448,-0.9931 -2.71552,-0.9931 -3.75,0c-1.03448,0.9931 -1.03448,2.6069 0,3.6l5.88362,5.64828c0.51724,0.49655 1.16379,0.74483 1.875,0.74483s1.35776,-0.24828 1.875,-0.74483z"
                            stroke="null" />
                    </g>
                    <g stroke="null" id="svg_25">
                        <path stroke="null" id="svg_26" fill="#81C225" d="m203.85167,675.02861l-7.20967,0l0,-4.02861l-18.82692,0l0,4.02861l-6.83834,0c-4.44987,0 -8.06874,2.71085 -8.06874,6.04299l0,53.71471c0,3.3314 3.61986,6.04269 8.06874,6.04269l32.87493,0c4.45125,0 8.06933,-2.71129 8.06933,-6.04269l0,-53.71486c0,-3.33199 -3.61808,-6.04284 -8.06933,-6.04284zm2.69083,59.75814c0,1.11012 -1.20708,2.01379 -2.69083,2.01379l-32.87493,0c-1.48375,0 -2.69063,-0.90204 -2.69063,-2.01379l0,-53.7153c0,-1.11012 1.20688,-2.01438 2.69063,-2.01438l32.87493,0c1.48375,0 2.69083,0.90411 2.69083,2.01438l0,53.7153zm-2.93331,-0.37029l-32.38957,0l0,-8.8382l32.38878,0l0,8.8382l0.00079,0zm0,-11.01523l-32.38957,0l0,-8.83775l32.38878,0l0,8.83775l0.00079,0zm0,-11.01552l-32.38957,0l0,-8.83835l32.38878,0l0,8.83835l0.00079,0zm0,-10.99051l-32.38957,0l0,-8.8382l32.38878,0l0,8.8382l0.00079,0z"
                        />
                    </g>
                    <path fill="#F1F1F1" stroke-width="5" stroke-dasharray="null" stroke-linejoin="null" stroke-linecap="null" d="m23.81448,336.16141l21.72522,-46.4775l57.93393,0l21.72522,46.4775l-21.72522,46.4775l-57.93393,0l-21.72522,-46.4775z"
                        id="svg_28" transform="rotate(89.88292694091797 74.50666809082026,336.1614074707032) " stroke="null"
                    />
                    <text fill="#ff7f00" stroke-width="0" stroke-dasharray="null" stroke-linejoin="null" stroke-linecap="null" x="73" y="346.33333"
                        id="svg_40" font-size="24" text-anchor="middle" xml:space="preserve" stroke="null">N/A</text>
                    <g id="svg_44" stroke="null">
                        <path d="m492.22214,367.35132c-1.08549,-1.21222 -2.82714,-1.19221 -3.8991,0.03078l-48.06457,54.14791c-0.51997,0.59148 -1.49768,1.39278 -1.49768,2.22435l0,56.77908c0,1.74316 2.6215,2.8892 4.15661,2.8892l96.12824,0c1.53015,0 2.31529,-1.14552 2.31529,-2.8892l0,-56.77908c0,-0.85004 -0.07306,-1.66314 -0.60926,-2.25514l-48.52952,-54.14791l-0.00001,0l0,0.00001z"
                            fill="#00AC85" id="svg_45" stroke="null" />
                        <path d="m559.49721,418.90295l-67.2453,-76.7588c-0.52268,-0.59302 -1.27264,-0.88852 -1.9712,-0.9275c-0.74455,0.00308 -1.30556,0.34063 -1.82553,0.94289l-24.73716,28.80071l0,-16.79759c0,-1.74214 -1.53826,-3.22368 -3.06841,-3.22368l-16.635,0c-1.53285,0 -2.48034,1.48205 -2.48034,3.22368l0,42.47004l-19.40036,22.28205c-1.07241,1.24145 -1.12923,3.24369 -0.03788,4.46359c1.09406,1.21991 3.35523,1.20144 4.43035,-0.03694l20.55349,-23.18185c0,0 0,-0.00308 0,-0.00615l43.77222,-51.29719l64.9918,74.49751c0.54162,0.6156 1.1157,0.9275 1.82779,0.9275c0.70667,0 1.34886,-0.30523 1.88777,-0.92135c1.08323,-1.22556 1.01784,-3.22214 -0.06223,-4.45693l-0.00001,0.00001z"
                            fill="#00AC85" id="svg_46" stroke="null" />
                    </g>
                    <path id="svg_27" fill="#F1F1F1" stroke-width="5" stroke-dasharray="null" stroke-linejoin="null" stroke-linecap="null" d="m21.30783,543.5l21.72522,-46.4775l57.93393,0l21.72522,46.4775l-21.72522,46.4775l-57.93393,0l-21.72522,-46.4775z"
                        transform="rotate(89.88292694091797 72.00001525878905,543.5) " stroke="null" />
                    <text id="svg_29" fill="#ff7f00" stroke="null" stroke-width="0" stroke-dasharray="null" stroke-linejoin="null" stroke-linecap="null"
                        x="70.49335" y="553.67192" font-size="24" text-anchor="middle" xml:space="preserve">N/A</text>
                    <path id="svg_30" fill="#F1F1F1" stroke-width="5" stroke-dasharray="null" stroke-linejoin="null" stroke-linecap="null" d="m265.9745,326.5l21.72522,-46.4775l57.93393,0l21.72522,46.4775l-21.72522,46.4775l-57.93393,0l-21.72522,-46.4775z"
                        transform="rotate(89.88292694091797 316.6665039062499,326.50000000000006) " stroke="null" />
                    <text id="svg_37" fill="#ff7f00" stroke-width="0" stroke-dasharray="null" stroke-linejoin="null" stroke-linecap="null" x="315.16002"
                        y="337.67192" font-size="24" text-anchor="middle" xml:space="preserve" stroke="null">N/A</text>
                    <path id="svg_41" fill="#81C225" stroke-width="5" stroke-dasharray="null" stroke-linejoin="null" stroke-linecap="null" d="m134.97725,810.83332l22.29665,-46.4775l59.45773,0l22.29665,46.4775l-22.29665,46.4775l-59.45773,0l-22.29665,-46.4775z"
                        transform="rotate(89.88292694091797 187.00274658203114,810.8333129882814) " stroke="null" />
                    <text id="svg_42" fill="#ffffff" stroke="null" stroke-width="0" stroke-dasharray="null" stroke-linejoin="null" stroke-linecap="null"
                        x="186.82668" y="837.00525" font-size="24" text-anchor="middle" xml:space="preserve">61 %</text>
                    <g stroke="null" id="svg_43">
                        <path stroke="null" id="svg_47" fill="#81C225" d="m746.79864,167.45869l-33.61603,-28.42857c-0.89538,-0.75712 -2.12867,-0.75712 -3.02404,0l-5.52614,4.67346l-5.52614,-4.67346c-0.89538,-0.75712 -2.12867,-0.75712 -3.02404,0l-5.38839,4.55679l-5.38839,-4.55679c-0.89538,-0.75712 -2.12867,-0.75712 -3.02404,0l-33.61603,28.42857c-0.62884,0.53224 -0.99869,1.36499 -0.99869,2.24843l0,47.86383c0,1.55527 1.12424,2.81606 2.51107,2.81606l13.80083,0l14.07562,0l39.35598,0l13.80083,0l14.07562,0c1.38683,0 2.51107,-1.26079 2.51107,-2.81606l0,-47.86383c0,-0.88344 -0.36984,-1.71619 -0.99905,-2.24843l-0.00004,0zm-4.02309,47.29619l-9.05348,0l0,-45.04777c0,-0.88384 -0.36984,-1.71619 -0.99905,-2.24843l-23.91972,-20.22819l2.86728,-2.42503l31.10497,26.30525l0,43.64416l0,0.00001zm-22.85431,0l0,-45.04777c0,-0.88384 -0.36984,-1.71619 -0.99905,-2.24843l-24.05747,-20.34445l2.72989,-2.30837l31.10532,26.30525l0,43.64416l-8.7787,0l0,-0.0004l0.00001,0.00001zm-32.01505,-0.0004l-7.34093,0l-0.8839,0l0,-20.42049l8.22483,0l0,20.42049zm5.02214,0l0,-23.23655c0,-1.55527 -1.12424,-2.81606 -2.51107,-2.81606l-13.24696,0c-1.38683,0 -2.51107,1.26079 -2.51107,2.81606l0,23.23655l-8.16958,0l-13.80083,0l0,-43.64416l31.10497,-26.30525l31.10532,26.30525l0,43.64416l-21.97077,0l-0.00001,0z"
                        />
                    </g>
                    <text fill="#ffffff" stroke-width="0" x="489" y="455" id="svg_60" font-size="24" text-anchor="middle"
                        xml:space="preserve" stroke="null">N/A</text>
                    <path fill="#F1F1F1" stroke-width="5" stroke-dasharray="null" stroke-linejoin="null" stroke-linecap="null" d="m626.30783,570.5l21.72522,-46.4775l57.93393,0l21.72522,46.4775l-21.72522,46.4775l-57.93393,0l-21.72522,-46.4775z"
                        transform="rotate(89.88292694091797 676.9999999999999,570.5000000000002) " stroke="null" id="svg_61"
                    />
                    <text fill="#ff7f00" stroke-width="0" stroke-dasharray="null" stroke-linejoin="null" stroke-linecap="null" x="675.49335"
                        y="580.67192" font-size="24" text-anchor="middle" xml:space="preserve" id="svg_62"
                        stroke="null">N/A</text>
                    <path fill="#F1F1F1" stroke-width="5" stroke-dasharray="null" stroke-linejoin="null" stroke-linecap="null" d="m760.97449,302.83334l21.72522,-46.4775l57.93393,0l21.72522,46.4775l-21.72522,46.4775l-57.93393,0l-21.72522,-46.4775z"
                        transform="rotate(89.88292694091797 811.6670532226562,302.83334350585943) " id="svg_65" stroke="null"
                    />
                    <text fill="#ff7f00" stroke="null" stroke-width="0" stroke-dasharray="null" stroke-linejoin="null" stroke-linecap="null"
                        x="811.49335" y="314.00526" font-size="24" text-anchor="middle" xml:space="preserve"
                        id="svg_66">N/A</text>
                    <path fill="#F1F1F1" stroke-width="5" stroke-dasharray="null" stroke-linejoin="null" stroke-linecap="null" d="m855.5038,294.65545l38.91598,-78.8673l103.77594,0l38.91598,78.8673l-38.91598,78.8673l-103.77594,0l-38.91598,-78.8673z"
                        transform="rotate(89.88292694091797 946.3077392578126,294.6554565429688) " id="svg_67" stroke="null"
                    />
                    <text fill="#ff7f00" stroke-width="0" stroke-dasharray="null" stroke-linejoin="null" stroke-linecap="null" x="948.82668"
                        y="348.67192" font-size="24" text-anchor="middle" xml:space="preserve" id="svg_68"
                        stroke="null">N/A</text>
                    <rect id="svg_73" height="23" width="145.00001" y="298" x="874" stroke-width="0" fill="#81C225" stroke="#000000" />
                    <text fill="#ffffff" stroke-width="0" stroke-dasharray="null" stroke-linejoin="null" stroke-linecap="null" x="960" y="316"
                        id="svg_74" font-size="24" text-anchor="middle" xml:space="preserve" stroke="#000000">Export</text>
                    <path fill="#ffffff" stroke-width="0" stroke-dasharray="null" stroke-linejoin="null" stroke-linecap="null" d="m880.1675,307.41763l13.00001,-11.95443l13.00001,11.95443l-6.50001,0l0,12.01196l-13.00001,0l0,-12.01196l-6.50001,0l0.00001,0z"
                        id="svg_77" stroke="#000000" />
                    <text fill="#000000" stroke="null" stroke-width="0" stroke-dasharray="null" stroke-linejoin="null" stroke-linecap="null"
                        x="949" y="256" id="svg_79" font-size="24"  text-anchor="middle" xml:space="preserve">Today&#x27;s Total</text>
                    <text fill="#000000" stroke="null" stroke-width="0" stroke-dasharray="null" stroke-linejoin="null" stroke-linecap="null"
                        x="941" y="279" id="svg_80" font-size="24" text-anchor="middle" xml:space="preserve">Mini Grid</text>
                    <path fill="#F1F1F1" stroke-width="5" stroke-dasharray="null" stroke-linejoin="null" stroke-linecap="null" d="m586.19606,717.49999l38.91598,-78.8673l103.77594,0l38.91598,78.8673l-38.91598,78.8673l-103.77594,0l-38.91598,-78.8673z"
                        transform="rotate(89.88292694091797 677,717.5000000000001) " stroke="null" id="svg_81" />
                    <text fill="#ff7f00" stroke-width="0" stroke-dasharray="null" stroke-linejoin="null" stroke-linecap="null" x="679.51894"
                        y="771.51646" font-size="24" text-anchor="middle" xml:space="preserve" stroke="null"
                        id="svg_82">N/A</text>
                    <rect height="23" width="145.00001" y="720.84454" x="604.69226" stroke-width="0" fill="#81C225" stroke="#000000" id="svg_83"
                    />
                    <text fill="#ffffff" stroke-width="0" stroke-dasharray="null" stroke-linejoin="null" stroke-linecap="null" x="690.69226"
                        y="738.84454" font-size="24" text-anchor="middle" xml:space="preserve" stroke="#000000"
                        id="svg_84">Export</text>
                    <path fill="#ffffff" stroke-width="0" stroke-dasharray="null" stroke-linejoin="null" stroke-linecap="null" d="m610.85976,730.26217l13.00001,-11.95443l13.00002,11.95443l-6.50001,0l0,12.01196l-13.00001,0l0,-12.01196l-6.50001,0z"
                        stroke="#000000" id="svg_85" />
                    <text fill="#000000" stroke="null" stroke-width="0" stroke-dasharray="null" stroke-linejoin="null" stroke-linecap="null"
                        x="679.69226" y="678.84454" font-size="24" text-anchor="middle" xml:space="preserve"
                        id="svg_86">Today&#x27;s Total</text>
                    <text fill="#000000" stroke="null" stroke-width="0" stroke-dasharray="null" stroke-linejoin="null" stroke-linecap="null"
                        x="671.69226" y="701.84454" font-size="24" text-anchor="middle" xml:space="preserve"
                        id="svg_87">Solar</text>
                    <g stroke="null" id="svg_63">
                        <path stroke="null" id="svg_64" fill="#c6c6c6" d="m1136.01812,409.74902c0.49712,0 0.93139,-0.26003 1.06008,-0.6345c0.1257,-0.3733 -0.08949,-0.76707 -0.52106,-0.95686l-16.1903,-7.11435c-0.01945,-0.00977 -0.03202,-0.02442 -0.05477,-0.03419l-5.79811,-2.60357l0,-18.796c0,-0.36818 -0.30288,-0.69357 -0.75271,-0.80824c-0.44863,-0.1156 -0.94425,0.00651 -1.22379,0.30213l-14.07403,14.82784l-14.84859,0.02977l-13.94205,-14.68782c-0.28073,-0.29631 -0.77516,-0.41679 -1.22349,-0.30329c-0.44893,0.1156 -0.75361,0.44029 -0.75361,0.80917l0,18.66412l-2.99737,1.39273c-0.01197,0.00442 -0.02604,0.00442 -0.03771,0.01023l-18.64087,8.31333c-0.43098,0.19095 -0.64108,0.58449 -0.51328,0.95686c0.12869,0.37237 0.56146,0.63124 1.05798,0.63124l3.64713,0l0,1.40087l-1.71612,0c-0.72488,0 -1.31447,0.45866 -1.31447,1.02152c0,0.56216 0.5896,1.02152 1.31447,1.02152l1.71612,0l0,0.93686l-1.71612,0c-0.72488,0 -1.31447,0.45796 -1.31447,1.02198c0,0.56332 0.5896,1.02152 1.31447,1.02152l1.71612,0l0,2.80987c0,0.37563 0.39237,0.68008 0.87721,0.68008l4.38248,0c0.48335,0 0.87512,-0.30469 0.87512,-0.68008l0,-2.80987l2.00852,0c0.72488,0 1.31447,-0.45913 1.31447,-1.02152c0,-0.56286 -0.5893,-1.02198 -1.31447,-1.02198l-2.00852,0l0,-0.93686l2.00852,0c0.72488,0 1.31447,-0.45913 1.31447,-1.02152c0,-0.56402 -0.5893,-1.02152 -1.31447,-1.02152l-2.00852,0l0,-1.40087l8.22714,0l17.90073,41.59085l-9.76937,32.5572l-11.13353,19.84984c-0.06165,0.10955 -0.0847,0.22584 -0.0847,0.34074l-3.07489,0l0,2.49774l16.43422,0l0,-2.49774l-3.92187,0l17.1995,-19.07208l5.86845,0l16.9909,19.07208l-3.78121,0l0,2.49774l16.43332,0l0,-2.49774l-3.00156,0c0,-0.11606 -0.02394,-0.23119 -0.0853,-0.34074l-11.12694,-19.83868l-8.46896,-32.56394l16.738,-41.5962l9.70652,0l0,1.40087l-1.71642,0c-0.72518,0 -1.31447,0.45866 -1.31447,1.02152c0,0.56216 0.5893,1.02152 1.31447,1.02152l1.71642,0l0,0.93686l-1.71642,0c-0.72518,0 -1.31447,0.45819 -1.31447,1.02198c0,0.56332 0.5893,1.02152 1.31447,1.02152l1.71642,0l0,2.80987c0,0.37563 0.39267,0.68008 0.87721,0.68008l4.38188,0c0.48485,0 0.87751,-0.30446 0.87751,-0.68008l0,-2.80987l2.00852,0c0.72488,0 1.31447,-0.45913 1.31447,-1.02152c0,-0.56286 -0.5896,-1.02198 -1.31447,-1.02198l-2.00852,0l0,-0.93686l2.00852,0c0.72488,0 1.31447,-0.45913 1.31447,-1.02152c0,-0.56379 -0.5896,-1.02152 -1.31447,-1.02152l-2.00852,0l0,-1.40087l2.48499,0l0,0.00233l-0.0003,0zm-77.66383,5.06224c0.24153,0 0.43846,0.15351 0.43846,0.34144c0,0.1877 -0.19693,0.34074 -0.43846,0.34074l-9.86065,0c-0.24153,0 -0.43936,-0.15304 -0.43936,-0.34074c0,-0.18793 0.19783,-0.34144 0.43936,-0.34144l9.86065,0zm0,-2.98036c0.24153,0 0.43846,0.15351 0.43846,0.34144c0,0.1877 -0.19693,0.34027 -0.43846,0.34027l-9.86065,0c-0.24153,0 -0.43936,-0.15258 -0.43936,-0.34027c0,-0.18793 0.19783,-0.34144 0.43936,-0.34144l9.86065,0zm77.18886,2.98036c0.24153,0 0.43846,0.15351 0.43846,0.34144c0,0.1877 -0.19693,0.34074 -0.43846,0.34074l-9.86275,0c-0.24182,0 -0.43726,-0.15304 -0.43726,-0.34074c0,-0.18793 0.19544,-0.34144 0.43726,-0.34144l9.86275,0zm0,-2.98036c0.24153,0 0.43846,0.15351 0.43846,0.34144c0,0.1877 -0.19693,0.34027 -0.43846,0.34027l-9.86275,0c-0.24182,0 -0.43726,-0.15258 -0.43726,-0.34027c0,-0.18793 0.19544,-0.34144 0.43726,-0.34144l9.86275,0zm-56.88693,71.48237l12.28908,-4.30517l11.73659,4.30517l-24.02567,0zm-3.43822,-0.2898l2.64391,-8.81409l10.99915,4.03491l-13.64306,4.77918zm7.62796,-25.42354l6.7277,2.57706l-8.48692,3.28575l1.75922,-5.8628l0,-0.00001zm2.95487,-0.38656l11.42922,0l-5.68498,2.2005l-5.74424,-2.2005zm5.74843,3.72115l9.63379,3.69068l-9.71969,3.14038l-9.462,-3.13596l9.5479,-3.6951zm-11.1024,4.66126l8.75508,2.90035l-10.65885,3.44437l1.90377,-6.34472zm-1.23277,7.60371l12.24239,-3.95559l11.86768,3.9328l-12.363,4.33099l-11.74707,-4.3082zm14.50531,-4.68592l8.72934,-2.82127l1.62603,6.25262l-10.35538,-3.43135l0.00001,0zm-0.19783,-8.34194l6.80671,-2.6345l1.5144,5.8214l-8.32111,-3.1869zm-10.15246,-4.32052l1.10976,-3.70045l14.44844,0l0.96371,3.70045l-16.52191,0zm3.80904,-17.0081l-7.83806,-1.35412l0.91283,-5.40856l6.92523,6.76268zm16.27081,-7.44858l0.6731,6.00863l-8.5372,1.38947l7.8641,-7.3981zm-9.48804,8.9255l3.85154,10.12867l-12.67247,0l3.49269,-10.18635l1.97231,1.92465c0.16491,0.16072 0.41332,0.25515 0.67819,0.25724c0.00269,0 0.00419,0 0.00688,0c0.26038,0 0.50909,-0.09117 0.67549,-0.24747l1.99536,-1.87674l0.00001,0zm-16.03737,-4.91641l-4.15472,-9.6528l4.96639,4.8478l-0.81167,4.805zm8.92418,4.77639l-3.04646,8.87945l-4.3741,-10.16076l7.42056,1.28132l0,-0.00001zm12.4902,9.47533l-3.60972,-9.49487l7.95059,-1.29388l-4.34088,10.78875l0.00001,0zm5.70324,-19.75821l3.6178,-3.40367l-3.12906,7.77443l-0.48874,-4.37076zm5.0035,-6.84362l-18.74174,17.62911l-10.95725,-10.69757l0,0l-7.16227,-6.99178l10.94827,-13.24416l3.67706,0l0,1.40087l-1.71582,0c-0.72577,0 -1.31507,0.45913 -1.31507,1.02152s0.5893,1.02152 1.31507,1.02152l1.71582,0l0,0.93732l-1.71582,0c-0.72577,0 -1.31507,0.4575 -1.31507,1.02152c0,0.56332 0.5893,1.02152 1.31507,1.02152l1.71582,0l0,2.80987c0,0.37563 0.39177,0.68008 0.87721,0.68008l4.38248,0c0.48305,0 0.87512,-0.30446 0.87512,-0.68008l0,-2.80987l2.00852,0c0.72637,0 1.31567,-0.45936 1.31567,-1.02152c0,-0.56286 -0.5896,-1.02152 -1.31567,-1.02152l-2.00852,0l0,-0.93732l2.00852,0c0.72637,0 1.31567,-0.45936 1.31567,-1.02152c0,-0.56379 -0.5896,-1.02152 -1.31567,-1.02152l-2.00852,0l0,-1.40087l4.15412,0l11.97483,13.22788l-0.02783,0.07652zm-37.70614,-24.783l-6.62804,8.75664l-2.03576,-4.73104l8.6638,-4.0256zm17.8735,-2.61776l-6.88962,11.05622l-6.99167,-10.29311l1.58892,-0.73869l12.29237,-0.02442zm13.72297,-0.02931l1.35458,0.60775l-6.78128,10.92458l-5.45453,-11.51l10.88123,-0.02233zm-19.49893,12.42406l7.17334,-11.51l5.45453,11.51l-12.62787,0zm-9.41292,-10.63733l7.22632,10.63733l-15.27747,0l8.05116,-10.63733l-0.00001,0zm20.93193,14.42081c0.24033,0 0.43726,0.15351 0.43726,0.34144c0,0.1877 -0.19693,0.34027 -0.43726,0.34027l-9.86215,0c-0.24242,0 -0.43936,-0.15258 -0.43936,-0.34027c0,-0.18793 0.19693,-0.34144 0.43936,-0.34144l9.86215,0zm0,2.98036c0.24033,0 0.43726,0.15351 0.43726,0.34144c0,0.1877 -0.19693,0.34074 -0.43726,0.34074l-9.86215,0c-0.24242,0 -0.43936,-0.15304 -0.43936,-0.34074c0,-0.18793 0.19693,-0.34144 0.43936,-0.34144l9.86215,0zm10.64329,-17.54933l7.98441,10.78433l-14.68069,0l6.69628,-10.78433zm2.53797,0.69567l7.6112,3.41832c0.05028,0.0321 0.08949,0.07326 0.14815,0.09885l1.5575,0.68334l-2.1863,5.43135l-7.13054,-9.63186l-0.00001,0zm2.26861,-0.94686l-4.2882,-8.36217l5.20612,-1.51367l0,10.28729l-0.91792,-0.41145zm0.91762,-11.6649c-0.05866,0.01023 -0.11852,0.00581 -0.17449,0.02279l-3.91379,1.13804l4.08828,-4.30727l0,3.14643l0,0.00001zm-7.05812,4.28889l3.07579,6.00003l-3.56303,-1.60066c-0.1664,-0.07489 -0.35615,-0.11443 -0.54919,-0.11443c-0.0015,0 -0.0015,0 -0.00269,0l-3.03658,0.00651l4.07571,-4.29145l-0.00001,0zm-27.65095,4.33913c-0.19753,0 -0.39027,0.04233 -0.55937,0.12118l-3.46546,1.61089l3.14343,-6.12818l4.16669,4.38983l-3.28529,0.00628zm-3.25386,-6.89502l-4.47256,-1.30039l0,-3.41018l4.47256,4.71057zm-4.47256,0.5182l4.78682,1.39156l-4.18196,8.15634l-0.60337,0.28003l0,-9.82793l-0.0015,0l0.00001,0zm-19.21371,20.45038l11.04524,-4.92664l2.11956,4.92664l-13.1648,0zm31.37559,1.7016l-9.97378,12.06588l-5.19205,-12.06588l15.16584,0l-0.00001,0zm-13.03341,93.48736l-4.76886,0l10.2195,-18.22011l10.98239,0l-16.43302,18.22011l-0.00001,0zm43.87417,0l-16.2334,-18.22011l10.99705,0l10.2192,18.22011l-4.98285,0zm-6.10249,-19.92311l-13.74182,-5.04108l11.61718,-4.06956l2.36737,9.11064l-0.24272,0l-0.00001,0zm3.94701,-61.97494l-10.48856,-11.58815l15.15267,0l-4.66411,11.58815zm9.66881,-18.32268l11.45107,5.03061l-13.47606,0l2.02498,-5.03061l0.00001,0z"
                        />
                    </g>
                    <g id="svg_58" stroke="null">
                        <path d="m201.39401,776.33331l-11.65743,16.83708l8.73574,0l-16.02872,22.6166l-7.14913,0l4.37129,-16.71113l-9.60509,0l5.82857,-22.74255l25.50477,0z"
                            fill="#FFFFFF" id="svg_59" stroke="null" />
                    </g>
                    <g id="svg_75" stroke-width="4" stroke="black">
                        <path id="svg_76" d="m130,337l45,0" stroke-dasharray="3,3" stroke="#C6C6C6" />
                    </g>
                    <g stroke-width="4" stroke="black" id="svg_48">
                        <path d="m129.5,544.5l45,0" stroke-dasharray="3,3" stroke="#C6C6C6" id="svg_49" />
                    </g>
                    <g stroke-width="4" stroke="black" id="svg_50" transform="rotate(89.51445770263672 318,410.5) ">
                        <path d="m295.5,410.5l45,0" stroke-dasharray="3,3" stroke="#C6C6C6" id="svg_51" />
                    </g>
                    <g stroke-width="4" stroke="black" id="svg_78">
                        <path d="m710.5,302.5l45,0" stroke-dasharray="3,3" stroke="#C6C6C6" id="svg_88" />
                    </g>
                    <g stroke-width="4" stroke="black" id="svg_89" transform="rotate(89.43829345703125 676,486.5000000000001) ">
                        <path d="m653.5,486.5l45,0" stroke-dasharray="3,3" stroke="#C6C6C6" id="svg_90" />
                    </g>
                    <g stroke="black" stroke-width="4" id="svg_91" transform="rotate(90 186.66662597656247,340.33334350585943) " class="flowline">
                        <path stroke="#81C225" d="m87.16661,340.33334l199.00001,0" id="svg_92" />
                    </g>
                    <g id="svg_31" stroke="black" stroke-width="4" transform="rotate(90 186.99999999999991,554.5000000000001) " class="flowline">
                        <path id="svg_32" stroke="#81C225" d="m87.49998,554.5l199.00001,0" />
                    </g>
                    <g stroke="black" id="svg_35" stroke-width="4" transform="rotate(90 699.0000000000001,332.50000000000006) " class="flowline">
                        <path stroke="#81C225" id="svg_36" d="m599.49998,332.5l199.00001,0" />
                    </g>
                    <g id="svg_38" stroke-width="4" stroke="black" class="flowline">
                        <path id="svg_39" d="m190.49998,447.5l235.00001,0" stroke="#81C225" />
                    </g>
                    <g stroke-width="4" id="svg_33" stroke="black" class="flowline1">
                        <path d="m550.49999,438.5l147.00001,0" id="svg_34" stroke="#81C225" />
                    </g>
                    <g stroke-width="4" id="svg_52" stroke="black" class="staticline">
                        <path d="m550.49997,450.5l509.00003,0" id="svg_53" stroke="#81C225" />
                    </g>
                </g>
            </svg>