<svg width="512" height="512" xmlns="http://www.w3.org/2000/svg" xmlns:svg="http://www.w3.org/2000/svg">
 <g>
  <title>Layer 1</title>
  <g stroke="null" id="svg_1">
   <path stroke="null" id="svg_2" fill="#6D6E71" d="m470.76955,203.93078l-146.75383,-135.06078c-3.90884,-3.59698 -9.2929,-3.59698 -13.20174,0l-24.12488,22.20306l-24.12488,-22.20306c-3.90884,-3.59698 -9.2929,-3.59698 -13.20174,0l-23.52352,21.64879l-23.52352,-21.64879c-3.90884,-3.59698 -9.2929,-3.59698 -13.20174,0l-146.75383,135.06078c-2.74527,2.52859 -4.35986,6.48489 -4.35986,10.68201l0,227.39545c0,7.38891 4.90798,13.37879 10.9623,13.37879l60.24878,0l61.44837,0l171.81207,0l60.24878,0l61.44837,0c6.05432,0 10.9623,-5.98987 10.9623,-13.37879l0,-227.39545c0,-4.19712 -1.61459,-8.15342 -4.36143,-10.68201zm-17.56316,224.69867l-39.52378,0l0,-214.01666c0,-4.19903 -1.61459,-8.15342 -4.36143,-10.68201l-104.4237,-96.10175l12.51738,-11.52105l135.79153,124.97318l0,207.34829zm-99.77256,0l0,-214.01666c0,-4.19903 -1.61459,-8.15342 -4.36143,-10.68201l-105.02506,-96.6541l11.91758,-10.96678l135.7931,124.97318l0,207.34829l-38.32419,0l0,-0.00191zm-139.76458,-0.00191l-32.04749,0l-3.85873,0l0,-97.01533l35.90622,0l0,97.01533zm21.92459,0l0,-110.39412c0,-7.38891 -4.90798,-13.37879 -10.9623,-13.37879l-57.83081,0c-6.05432,0 -10.9623,5.98987 -10.9623,13.37879l0,110.39412l-35.66505,0l-60.24878,0l0,-207.34829l135.79153,-124.97318l135.7931,124.97318l0,207.34829l-95.9154,0z"/>
  </g>
 </g>
</svg>