<?xml version="1.0" encoding="iso-8859-1"?>
<!-- Generator: Adobe Illustrator 19.0.0, SVG Export Plug-In . SVG Version: 6.00 Build 0)  -->
<svg xmlns="http://www.w3.org/2000/svg" xmlns:xlink="http://www.w3.org/1999/xlink" version="1.1" id="Layer_1" x="0px" y="0px" viewBox="0 0 512 512" style="enable-background:new 0 0 512 512;" xml:space="preserve" width="512px" height="512px">
<g>
	<g>
		<g>
			<path d="M436.544,24.944H37.434C16.793,24.944,0,41.737,0,62.377v209.534c0,20.641,16.793,37.433,37.434,37.433h167.11v84.778     h-34.922v39.911H92.311v15h289.355v-15h-77.311v-39.911h-34.922v-84.778h167.11c20.641,0,37.434-16.792,37.434-37.433V62.377     C473.978,41.737,457.185,24.944,436.544,24.944z M289.355,409.122v24.911H184.622v-24.911H289.355z M219.544,394.122v-84.778     h34.89v84.778H219.544z M436.544,294.344H37.434c-12.37,0-22.434-10.063-22.434-22.433V62.377     c0-12.37,10.063-22.433,22.434-22.433h399.11c12.37,0,22.434,10.063,22.434,22.433v209.534h0     C458.978,284.281,448.915,294.344,436.544,294.344z" fill="#6D6E71"/>
			<path d="M39.911,274.422h394.155V59.867H39.911V274.422z M419.067,259.422h-74.8v-29.9h74.8V259.422z M419.067,214.522h-74.8     v-39.877h74.8V214.522z M419.067,159.645h-74.8v-39.878h74.8V159.645z M344.266,74.867h74.8v29.9h-74.8V74.867z M329.267,159.645     h-84.778v-39.878h84.778V159.645z M244.488,74.867h84.778v29.9h-84.778V74.867z M244.488,174.645h84.778v39.877h-84.778V174.645z      M244.488,229.522L244.488,229.522h84.778v29.9h-84.778V229.522z M144.711,74.867h84.777v29.9h-84.777V74.867z M144.711,119.767     h84.777v39.878h-84.777V119.767z M144.711,174.645h84.777v39.877h-84.777V174.645z M144.711,229.522h84.777v29.9h-84.777V229.522     z M54.911,74.867h74.8v29.9h-74.8V74.867z M54.911,119.767h74.8v39.878h-74.8V119.767z M54.911,174.645h74.8v39.877h-74.8     V174.645z M54.911,229.522h74.8v29.9h-74.8V229.522z" fill="#6D6E71"/>
		</g>
	</g>
</g>
<g>
</g>
<g>
</g>
<g>
</g>
<g>
</g>
<g>
</g>
<g>
</g>
<g>
</g>
<g>
</g>
<g>
</g>
<g>
</g>
<g>
</g>
<g>
</g>
<g>
</g>
<g>
</g>
<g>
</g>
</svg>
